<svg width="323" height="195" viewBox="0 0 323 195" fill="none" xmlns="http://www.w3.org/2000/svg">
<g clip-path="url(#clip0_2219_3783)">
<path d="M161.8 86.5463C102.449 86.5463 54.3276 134.678 54.3276 194.042H269.272C269.272 134.678 221.151 86.5463 161.8 86.5463Z" fill="#121C2D"/>
<path d="M120.886 41.9899C120.886 41.9899 120.852 41.9565 120.836 41.9399C118.611 39.69 115.837 39.2316 112.804 39.2483C111.446 39.2566 110.613 39.815 109.53 38.9567C108.447 38.0984 106.364 36.1234 105.181 35.4235C102.415 33.7985 99.4244 33.7902 96.3502 34.7402C93.5593 35.6068 91.6598 37.1567 89.9685 39.5066C89.7602 39.7983 89.5603 40.0899 89.3687 40.3899C89.1604 40.7149 88.8938 41.0149 88.5856 41.2566C87.5692 42.0815 86.1362 41.8482 84.9532 42.2149C83.6785 42.6065 82.4955 43.3231 81.5707 44.2981C77.68 48.3896 79.263 56.1393 84.7282 57.9642C86.3611 58.5142 88.119 58.4225 89.7353 57.8642C90.4517 57.6142 91.3432 56.7976 92.1263 56.7976C92.9094 56.7976 93.4426 57.7142 94.0758 58.1475C97.0167 60.1558 100.966 59.9974 104.123 58.3975C105.323 57.7892 106.748 55.9393 108.147 55.8226C109.289 55.7226 110.113 56.8059 111.146 57.1559C111.98 57.4392 112.838 57.6559 113.712 57.6392C119.236 57.5225 124.351 51.7644 123.152 46.2313C122.81 44.6397 122.01 43.1648 120.877 42.0065L120.886 41.9899Z" fill="white"/>
<path d="M91.1683 56.7559C90.9433 56.8559 90.4018 57.1725 89.5104 57.4142C88.6273 57.6559 87.3859 57.8059 86.0113 57.5392C84.6283 57.2892 83.1704 56.5976 82.0873 55.3143C81.0042 54.0477 80.2878 52.3228 80.1545 50.5562C80.0212 48.7896 80.4461 46.973 81.3791 45.673C81.8457 45.0231 82.4372 44.4731 83.0454 44.0148C83.6786 43.5815 84.3284 43.2315 84.9616 42.9982C86.2362 42.5148 87.4109 42.4815 88.2274 42.6065C89.0605 42.7232 89.5354 43.0065 89.702 43.0898C90.5434 43.5398 91.2433 43.8148 91.6348 43.5731C91.8181 43.4565 91.8764 43.2148 91.7098 42.8232C91.6265 42.6232 91.4932 42.3815 91.2433 42.1649C91.1266 42.0482 90.985 41.9315 90.835 41.7982C90.6767 41.6815 90.4768 41.5899 90.2685 41.4815C90.1519 41.4232 89.9269 41.2982 89.5687 41.2066C89.2271 41.0732 88.7606 40.9899 88.2107 40.9066C87.1027 40.7816 85.6114 40.9399 84.0868 41.5899C83.3203 41.9065 82.5455 42.3565 81.8207 42.9315C81.0876 43.4981 80.3961 44.2314 79.8629 45.1147C78.7798 46.8647 78.4299 49.0562 78.7048 51.1228C78.9881 53.206 79.9462 55.156 81.3375 56.5726C82.0373 57.2725 82.8538 57.8309 83.6952 58.2058C84.5283 58.5725 85.3781 58.7808 86.1696 58.8725C87.7608 59.0558 89.1188 58.7891 90.0519 58.4725C91.0017 58.1558 91.5349 57.7642 91.6682 57.6892C92.2597 57.2475 92.3347 56.8142 92.1764 56.6476C92.0014 56.4642 91.6348 56.4976 91.135 56.7559H91.1683Z" fill="#141C2C"/>
<path d="M90.8349 39.4816C91.1931 39.0317 92.1012 37.7484 93.9674 36.5568C94.8922 35.9568 96.0669 35.4235 97.4415 35.0985C98.8162 34.7902 100.399 34.7068 102.04 35.0485C102.857 35.2152 103.698 35.4818 104.49 35.8485C105.281 36.2151 106.048 36.7234 106.781 37.3234C107.147 37.6234 107.514 37.9484 107.881 38.2817C108.255 38.615 108.564 38.9567 109.039 39.3483C109.272 39.5316 109.53 39.7233 109.872 39.865C110.205 39.9983 110.538 40.0566 110.863 40.0816C111.505 40.1149 112.079 39.99 112.588 39.915C114.537 39.5983 116.67 39.8983 118.453 40.8899C120.252 41.8482 121.56 43.5898 122.069 45.5981C122.602 47.598 122.41 49.7979 121.585 51.6478C120.794 53.5227 119.228 54.931 117.486 55.8476C115.753 56.7559 113.779 57.1142 112.163 56.5976C111.971 56.5226 111.754 56.4559 111.58 56.3809C111.413 56.2976 111.221 56.1976 111.03 56.0726C110.638 55.8309 110.222 55.5476 109.705 55.3143C109.205 55.081 108.53 54.9143 107.856 55.0643C107.156 55.231 106.706 55.631 106.356 55.9226C106.014 56.2393 105.723 56.4393 105.423 56.6892C105.115 56.9226 104.781 57.0976 104.473 57.2976C104.14 57.4559 103.815 57.6225 103.49 57.7642C103.148 57.8809 102.832 58.0142 102.507 58.1059C101.199 58.4892 99.9575 58.5975 98.9162 58.5308C96.8084 58.4308 95.5087 57.8059 95.0755 57.6142C92.7844 56.5476 91.6264 55.3226 91.1598 55.506C90.9515 55.581 90.9932 55.9809 91.4514 56.7642C91.9513 57.4892 92.976 58.5892 94.8672 59.3641C95.3837 59.5641 96.9666 60.2141 99.4327 60.2141C100.657 60.1974 102.09 60.0224 103.598 59.4808C103.982 59.3475 104.356 59.1975 104.731 58.9975C105.115 58.8225 105.489 58.6058 105.864 58.3642C106.256 58.1475 106.597 57.8392 106.964 57.5559C107.339 57.2642 107.622 56.9559 107.889 56.7892C108.147 56.6226 108.314 56.5976 108.605 56.6309C108.889 56.6809 109.23 56.8392 109.613 57.0726C109.997 57.2975 110.397 57.5809 110.93 57.8309C111.196 57.9475 111.455 58.0225 111.721 58.1225C111.988 58.1975 112.263 58.2475 112.538 58.3142C114.779 58.6808 117.07 57.9809 119.003 56.7726C119.977 56.1559 120.877 55.3976 121.635 54.481C122.41 53.556 122.96 52.4644 123.343 51.3228C124.101 49.0396 124.06 46.4813 123.185 44.1898C122.735 43.0482 122.06 41.9899 121.194 41.1149C120.319 40.2566 119.278 39.5816 118.17 39.1317C117.061 38.6817 115.887 38.4317 114.729 38.3734C114.146 38.34 113.562 38.365 112.996 38.4234C112.413 38.49 111.879 38.615 111.421 38.6567C110.955 38.7067 110.563 38.665 110.272 38.5067C109.938 38.3317 109.597 37.99 109.213 37.6317C108.439 36.9234 107.672 36.2484 106.822 35.6568C105.123 34.4485 103.182 33.8485 101.382 33.6236C99.566 33.3986 97.8581 33.6402 96.4168 34.0902C94.9755 34.5485 93.7925 35.2068 92.876 35.8735C91.0432 37.2234 90.2517 38.49 90.0351 38.765C89.152 40.1399 89.1187 40.9899 89.3186 41.0732C89.5519 41.1816 90.0268 40.5816 90.8432 39.4816H90.8349Z" fill="#141C2C"/>
<path d="M25.0102 144.785C38.823 144.785 50.0204 133.586 50.0204 119.77C50.0204 105.954 38.823 94.7543 25.0102 94.7543C11.1975 94.7543 0 105.954 0 119.77C0 133.586 11.1975 144.785 25.0102 144.785Z" fill="#51A9E3"/>
<path d="M35.4744 111.445H13.9383C12.1137 111.445 11.4556 112.929 11.4556 113.928V127.178C11.4556 129.003 12.9385 129.661 13.9383 129.661H35.4744C37.2989 129.661 37.9571 128.178 37.9571 127.178V113.928C37.9571 112.104 36.4741 111.445 35.4744 111.445ZM25.7435 119.403C25.1187 119.837 24.2856 119.828 23.6691 119.403L14.5298 113.104H34.8829L25.7435 119.403ZM35.4744 128.011H13.9549C13.5717 128.003 13.1135 127.853 13.1135 127.186V114.137L19.3119 118.412L15.8628 121.603C15.5295 121.911 15.5045 122.436 15.8128 122.77C15.9794 122.945 16.196 123.036 16.421 123.036C16.6209 123.036 16.8208 122.961 16.9791 122.82L20.7032 119.378L22.7193 120.77C23.3108 121.178 24.0023 121.386 24.7021 121.386C25.402 121.386 26.0935 121.178 26.685 120.77L28.7011 119.378L32.4252 122.82C32.5834 122.97 32.7834 123.036 32.9833 123.036C33.2083 123.036 33.4249 122.945 33.5915 122.77C33.8998 122.436 33.8831 121.911 33.5415 121.603L30.0924 118.412L36.2908 114.137V127.178C36.2825 127.561 36.1325 128.02 35.466 128.02L35.4744 128.011Z" fill="white"/>
<path d="M207.988 50.0312C221.8 50.0312 232.998 38.8313 232.998 25.0156C232.998 11.1999 221.8 0 207.988 0C194.175 0 182.978 11.1999 182.978 25.0156C182.978 38.8313 194.175 50.0312 207.988 50.0312Z" fill="#F22F46"/>
<path d="M218.143 14.8827H199.39C198.198 14.8827 197.224 15.8576 197.224 17.0493V31.482C197.224 32.6736 198.198 33.6486 199.39 33.6486H201.556V37.2567C201.556 37.5317 201.714 37.7817 201.956 37.8984C202.056 37.9484 202.172 37.9734 202.281 37.9734C202.431 37.9734 202.589 37.9234 202.714 37.8317L208.296 33.6486H218.152C219.343 33.6486 220.318 32.6736 220.318 31.482V17.0493C220.318 15.8576 219.343 14.8827 218.152 14.8827H218.143ZM218.868 31.4736C218.868 31.8736 218.543 32.1986 218.143 32.1986H208.046C207.888 32.1986 207.738 32.2486 207.613 32.3403L202.997 35.8068V32.9236C202.997 32.5236 202.672 32.1986 202.272 32.1986H199.39C198.99 32.1986 198.665 31.8736 198.665 31.4736V17.0409C198.665 16.6409 198.99 16.316 199.39 16.316H218.143C218.543 16.316 218.868 16.6409 218.868 17.0409V31.4736Z" fill="white"/>
<path d="M297.99 145.919C311.802 145.919 323 134.719 323 120.903C323 107.087 311.802 95.8876 297.99 95.8876C284.177 95.8876 272.979 107.087 272.979 120.903C272.979 134.719 284.177 145.919 297.99 145.919Z" fill="#6ADDB2"/>
<path d="M298.214 119.053C291.641 119.053 286.684 116.912 286.684 114.062C286.684 111.212 291.641 109.07 298.214 109.07C304.788 109.07 309.745 111.212 309.745 114.062C309.745 116.912 304.788 119.053 298.214 119.053ZM298.214 110.329C292.158 110.329 287.934 112.295 287.934 114.07C287.934 115.845 292.158 117.812 298.214 117.812C304.271 117.812 308.495 115.845 308.495 114.07C308.495 112.295 304.271 110.329 298.214 110.329Z" fill="white"/>
<path d="M298.214 125.595C291.641 125.595 286.684 123.453 286.684 120.603V114.062C286.684 113.72 286.967 113.437 287.309 113.437C287.65 113.437 287.934 113.72 287.934 114.062V120.603C287.934 122.37 292.158 124.345 298.214 124.345C304.271 124.345 308.495 122.378 308.495 120.603V114.062C308.495 113.72 308.778 113.437 309.12 113.437C309.462 113.437 309.745 113.72 309.745 114.062V120.603C309.745 123.445 304.788 125.595 298.214 125.595Z" fill="white"/>
<path d="M298.214 132.144C291.641 132.144 286.684 130.003 286.684 127.153V120.612C286.684 120.27 286.967 119.987 287.309 119.987C287.65 119.987 287.934 120.27 287.934 120.612V127.153C287.934 128.919 292.158 130.894 298.214 130.894C304.271 130.894 308.495 128.928 308.495 127.153V120.612C308.495 120.27 308.778 119.987 309.12 119.987C309.462 119.987 309.745 120.27 309.745 120.612V127.153C309.745 129.994 304.788 132.144 298.214 132.144Z" fill="white"/>
<mask id="mask0_2219_3783" style="mask-type:luminance" maskUnits="userSpaceOnUse" x="24" y="35" width="262" height="160">
<path d="M285.285 35.2818H24.752V194.217H285.285V35.2818Z" fill="white"/>
</mask>
<g mask="url(#mask0_2219_3783)">
<path d="M74.8306 86.8046C68.5988 79.3299 60.5509 73.2052 51.4866 69.0221C50.9867 68.7971 50.4702 68.5637 49.9203 68.5554C49.3705 68.5471 48.7706 68.8304 48.6123 69.322C48.4374 69.8637 48.8123 70.4137 49.1039 70.9136C49.3955 71.4136 49.5954 72.1053 49.1539 72.4969C48.9872 72.6469 48.7623 72.7136 48.5373 72.7719C46.7795 73.2135 44.8466 73.0552 43.1971 72.3219C41.1309 71.4136 39.2981 69.6137 37.0237 69.797C36.882 69.8054 36.7237 69.8303 36.6154 69.9303C36.4488 70.072 36.4655 70.322 36.4988 70.5303C37.0903 73.9635 39.8063 76.8467 43.0804 78.48C46.3546 80.1132 50.1203 80.6466 53.8277 80.7715C55.4356 80.8299 57.1435 80.8382 58.5014 81.6465C60.4093 82.7798 61.0175 85.063 62.0255 86.9629C63.1003 89.0045 64.7998 90.7545 66.8576 91.9627" fill="white"/>
<path d="M64.2333 90.5128C63.975 89.9378 63.2835 88.4712 62.1755 86.388C61.6173 85.3464 60.9508 84.1547 60.176 82.8465C59.7844 82.2132 59.3595 81.4049 58.5014 80.8632C57.6017 80.3216 56.6186 80.3466 55.7438 80.2799C53.9359 80.1799 52.0198 80.1882 50.0453 80.0549C48.0791 79.9133 46.0296 79.6216 44.1468 78.78C42.264 77.9467 40.5727 76.5634 39.1481 74.9135C38.4316 74.0885 37.7651 73.1969 37.1319 72.2719L36.1905 70.8386L35.5823 70.1303L35.4324 69.9553C35.4324 69.9553 35.3657 69.8887 35.3491 69.8553C35.3241 69.8137 35.3241 69.822 35.3241 69.8053C35.3241 69.7803 35.3241 69.8053 35.3491 69.747C35.3907 69.7054 35.4157 69.6554 35.4824 69.6137C35.5907 69.5304 35.7906 69.472 35.9989 69.447C36.2072 69.422 36.4405 69.4387 36.6571 69.4887C36.8737 69.5304 37.0653 69.6137 37.2902 69.7304C37.7235 69.9553 38.1733 70.322 38.6732 70.6136C39.1647 70.9053 39.6563 71.2303 40.1478 71.5053C41.1392 72.0386 42.1223 72.5636 43.0971 73.0885C43.5803 73.3469 44.0885 73.6302 44.655 73.8385C45.2215 74.0552 45.863 74.1718 46.4545 74.1718C47.6459 74.1635 48.6373 73.9802 49.6787 73.9135C50.7034 73.8218 51.7115 73.7468 52.7029 73.6885C54.6607 73.5802 56.5853 73.5052 58.2848 73.5302C59.1263 73.5635 59.8927 73.6885 60.5426 73.9802C61.2007 74.2635 61.7922 74.6968 62.3254 75.1635C63.3835 76.1134 64.3333 77.105 65.1497 77.8883C66.7826 79.4883 67.8823 80.5632 68.2656 80.9465C72.2729 84.863 74.2474 84.938 68.8321 79.6383C68.4572 79.2716 67.3408 78.18 65.6829 76.5634C64.8331 75.7634 63.95 74.7801 62.6837 73.7718C62.0505 73.2802 61.284 72.8136 60.3843 72.5469C59.4928 72.2802 58.5514 72.2302 57.635 72.2386C55.8105 72.2636 53.886 72.3386 51.8615 72.4802C50.8451 72.5552 49.812 72.6386 48.7623 72.7469C47.6959 72.8386 46.6462 73.0385 45.7381 72.8636C44.8383 72.7052 43.9052 72.0969 42.9138 71.5886C41.9474 71.0553 40.9143 70.5637 39.9812 69.9803C39.5063 69.6887 39.0398 69.422 38.5649 69.0887C38.0817 68.7721 37.4985 68.4054 36.7904 68.2971C36.1322 68.2054 35.3741 68.1971 34.6742 68.7554C34.5076 68.9054 34.3743 69.072 34.2743 69.3054C34.1994 69.5554 34.1161 69.822 34.191 70.0887C34.2577 70.347 34.4326 70.5803 34.5493 70.7136C34.6992 70.8636 34.7326 70.922 34.8325 71.0386C34.9992 71.2386 35.1741 71.4136 35.3407 71.6386L35.8073 72.3552C36.1155 72.8302 36.4488 73.3052 36.7904 73.7802C37.4735 74.7135 38.2067 75.6218 39.0231 76.4551C40.631 78.1133 42.5889 79.4799 44.7217 80.1882C46.8461 80.9132 48.9955 81.0882 50.995 81.1799C52.9945 81.2632 54.8857 81.2465 56.5936 81.3632C57.4434 81.4215 58.0599 81.6298 58.5264 82.1715C58.993 82.6881 59.3595 83.3881 59.7428 84.0047C60.4842 85.2464 61.1174 86.3713 61.634 87.3213C62.6754 89.2295 63.2835 90.4878 63.4502 90.7961C64.8581 93.5793 65.4413 93.2377 64.2666 90.5295L64.2333 90.5128Z" fill="#141C2C"/>
<path d="M62.1504 73.5135C61.9255 73.2969 61.0091 72.3552 59.4095 71.3553C59.0096 71.1136 58.5597 70.8803 58.0598 70.6803C57.5433 70.4803 57.0601 70.322 56.5602 70.147C55.5521 69.797 54.4774 69.4304 53.411 69.0637C52.3863 68.7304 51.4282 68.0471 50.0869 67.9054C49.9119 67.8971 49.7203 67.9054 49.5204 67.9388C49.3454 67.9804 49.1788 68.0221 49.0122 68.1054C48.6873 68.2554 48.379 68.4887 48.1707 68.7887C47.7458 69.397 47.7208 70.1387 47.9041 70.7053C47.9958 70.9886 48.1291 71.247 48.2874 71.4636C48.4456 71.6719 48.5956 71.8386 48.7539 71.9886C49.0705 72.2886 49.3704 72.4969 49.637 72.6636C50.1619 72.9969 50.5118 73.1635 50.6367 73.2302C51.9198 73.8635 52.7945 72.8136 51.1366 71.9886C51.0283 71.9303 50.6867 71.7636 50.2452 71.4803C49.8286 71.197 49.2121 70.7553 49.1038 70.2137C49.0372 69.9303 49.0955 69.6387 49.2704 69.4387C49.3621 69.3387 49.487 69.2554 49.6537 69.197C49.7453 69.1637 49.8036 69.1554 49.8786 69.147C49.9619 69.147 50.0536 69.147 50.1619 69.1637C51.0533 69.2804 52.078 69.9137 53.2194 70.247C54.3191 70.597 55.4105 70.9553 56.4436 71.2803C56.9685 71.4553 57.4517 71.5886 57.8682 71.7636C58.3014 71.9386 58.693 72.1469 59.0596 72.3552C60.4925 73.2219 61.4006 74.0635 61.5589 74.1468C62.2088 74.5885 62.6337 74.0635 62.1338 73.5219L62.1504 73.5135Z" fill="#141C2C"/>
<path d="M252.785 87.3546C253.535 87.6713 254.385 87.2629 254.609 86.4796C256.076 81.3299 258.592 76.4801 261.974 72.3302C265.107 68.4887 268.972 65.2222 271.53 60.9724C272.855 58.7808 273.796 56.3643 274.304 53.856C274.413 53.3477 274.496 52.7977 274.288 52.3144C274.229 52.1728 274.129 52.0394 274.004 51.9311C273.521 51.4978 273.263 50.8728 273.396 50.2395C273.563 49.4229 273.68 48.6063 273.746 47.773C273.796 47.1647 273.805 46.5063 273.463 45.9897C273.121 45.4731 272.313 45.2481 271.888 45.698C271.313 44.7064 269.864 44.3481 268.897 44.9647C268.523 45.1981 268.231 45.5564 267.831 45.7397C267.456 45.9147 267.031 45.9314 266.631 46.0147C264.49 46.448 263.191 48.5979 262.349 50.6145C261.633 52.3311 260.966 54.706 259.558 56.0643C259.242 56.3643 258.717 56.1726 258.683 55.7393C258.542 54.006 258.259 52.1978 256.517 50.1229C255.743 49.2062 254.235 48.4479 253.285 49.1896C252.685 49.6562 254.035 52.3311 255.084 57.5725C256.376 64.0139 253.335 70.322 250.127 75.0385C249.228 76.3634 248.453 77.8133 248.144 79.3883C247.561 82.4298 249.194 86.288 252.185 87.1046L252.76 87.3463L252.785 87.3546Z" fill="white"/>
<path d="M264.023 63.2556C263.973 63.0056 263.682 61.8974 262.732 60.6891C262.274 60.0891 261.599 59.4641 260.858 58.9725C260.133 58.4808 259.416 58.0142 259.075 57.3809C258.35 56.0643 258.916 54.206 258.716 52.6394C258.641 51.8478 258.333 51.1228 258 50.6895C257.667 50.2312 257.333 49.9979 257.217 49.9229C256.909 49.7145 256.567 49.6895 256.35 49.7645C256.125 49.8395 256 50.0062 255.984 50.1645C255.959 50.3312 256.017 50.4978 256.109 50.6478C256.209 50.7978 256.334 50.9228 256.542 51.0728C256.634 51.1478 257.35 51.6395 257.458 52.9227C257.533 53.556 257.475 54.3393 257.458 55.256C257.458 56.1559 257.542 57.2475 258.183 58.1808C258.833 59.0975 259.733 59.5475 260.408 60.0058C261.091 60.4474 261.632 60.9641 262.041 61.4724C262.865 62.4973 263.149 63.3973 263.207 63.5056C263.457 64.0306 264.115 63.8889 264.015 63.264L264.023 63.2556Z" fill="#141C2C"/>
<path d="M249.269 77.6884C249.486 77.4134 250.294 76.1884 251.385 74.4968C251.927 73.6469 252.543 72.6886 253.201 71.6636C253.851 70.5137 254.351 69.347 254.776 68.0888C255.626 65.5972 255.976 62.964 255.984 60.9224C255.992 58.8725 255.734 57.4142 255.692 57.1142C255.384 55.4976 254.018 55.4643 254.401 57.4725C254.443 57.7559 254.701 59.1475 254.693 61.1141C254.709 63.0723 254.376 65.6055 253.576 67.9804C253.176 69.1554 252.685 70.3637 252.118 71.322C251.493 72.3552 250.902 73.3219 250.394 74.1635C249.369 75.8468 248.669 77.03 248.577 77.205C248.178 77.9967 248.769 78.33 249.277 77.68L249.269 77.6884Z" fill="#141C2C"/>
<path d="M262.824 56.5309C263.074 56.2476 264.465 53.9394 265.832 51.6228C266.515 50.4645 267.198 49.3312 267.723 48.3896C268.248 47.4563 268.539 46.698 268.589 46.5314C268.872 45.6481 267.614 45.1897 267.306 46.148C267.256 46.2814 267.023 46.948 266.54 47.8646C266.032 48.7896 265.39 49.9812 264.74 51.1645C263.441 53.5394 262.166 55.8893 262.099 56.0893C261.941 56.5309 262.532 56.8559 262.824 56.5226V56.5309Z" fill="#141C2C"/>
<path d="M267.506 60.9307C267.423 60.7391 266.414 59.7308 265.223 58.9558C264.048 58.1642 262.724 57.6225 262.565 57.5725C262.149 57.4142 261.624 58.6475 262.124 58.8308C262.266 58.8808 263.515 59.3225 264.657 59.9974C265.806 60.6474 266.814 61.4974 266.914 61.5474C267.139 61.639 267.606 61.1557 267.498 60.9307H267.506Z" fill="#141C2C"/>
<path d="M265.29 57.7725C265.581 57.4475 267.298 54.7977 268.989 52.1561C269.83 50.8228 270.68 49.5396 271.322 48.4479C271.971 47.348 272.238 46.3897 272.28 46.1897C272.405 45.6481 272.088 45.2731 271.763 45.2397C271.422 45.2064 271.105 45.4064 270.972 45.9564C270.938 46.1147 270.738 46.8813 270.147 47.923C269.564 48.9646 268.706 50.3395 267.906 51.6895C266.281 54.3977 264.682 57.0892 264.582 57.3142C264.365 57.8142 264.948 58.1558 265.29 57.7809V57.7725Z" fill="#141C2C"/>
<path d="M268.056 59.2141C268.306 58.9391 269.631 56.6143 271.13 54.4727C271.872 53.4144 272.73 52.3644 273.263 51.3895C273.813 50.4312 274.004 49.5812 274.029 49.4062C274.113 48.9396 273.779 48.6229 273.455 48.5979C273.113 48.5729 272.796 48.7563 272.705 49.2146C272.68 49.3396 272.555 49.9895 272.08 50.8562C271.622 51.7228 270.814 52.7894 270.072 53.9394C268.597 56.2226 267.398 58.5975 267.323 58.7892C267.173 59.2308 267.764 59.5475 268.056 59.2141Z" fill="#141C2C"/>
<path d="M255.776 84.838C255.984 84.3464 256.75 82.2465 258.108 79.5216C259.483 76.7967 261.574 73.5052 264.323 70.772C267.098 67.9304 269.489 64.7389 271.113 62.114C272.754 59.4975 273.688 57.4809 273.904 57.0642C274.929 54.8227 273.954 53.7644 272.613 56.6809C272.405 57.0809 271.488 59.0808 269.872 61.6807C268.264 64.2889 265.915 67.4471 263.19 70.2637C260.399 73.1719 258.333 76.6551 257.042 79.4133C255.742 82.1798 255.092 84.2131 255.009 84.5047C254.634 85.8213 255.292 85.9797 255.792 84.838H255.776Z" fill="#141C2C"/>
<path d="M148.653 194.225L166.041 189.734H182.02L195.025 192.958L203.173 217.716L205.705 237.248L209.563 264.68L212.887 306.862L213.003 352.052L210.871 384.692C210.871 384.692 211.046 393.608 204.972 393.933L203.423 394.283L203.731 402.316L201.531 404.658L202.056 413.782L197.749 417.032H191.776L189.859 413.691V396.375L177.571 397.95C177.571 397.95 171.997 399.45 171.872 391.717C171.747 383.984 170.981 349.077 170.981 349.077L170.589 332.702L162.858 360.735L152.152 394.2C152.152 394.2 150.278 403.333 141.047 402.449L131.733 401.966L129.517 408.533L127.867 412.732L123.21 414.166L118.728 418.757L116.52 418.182L114.595 416.949L117.903 401.475L108.464 400.766C108.464 400.766 101.057 401.033 104.223 392.417C107.389 383.8 110.088 371.459 110.088 371.459C110.088 371.459 114.77 349.01 114.77 349.002C120.052 321.053 123.71 293.037 127.376 264.822C129.325 249.839 131.308 234.673 136.407 220.366C139.614 211.383 144.596 202.941 148.628 194.242L148.653 194.225Z" fill="white"/>
<path d="M193.15 194.225L183.744 192.642H172.022L162.691 193.142L155.701 193.433L156.26 148.735L154.377 130.294L150.395 118.353V115.503L152.236 116.495L156.601 119.428L160.925 122.328L167.857 122.936L172.847 121.47L176.13 117.778L178.896 123.27L185.469 144.327L190.076 165.185L191.609 182.317L193.15 194.225Z" fill="white"/>
<path d="M188.493 123.578L192.551 121.803L193.984 120.578L195.233 117.978L195.475 114.412L194.483 111.462L192.292 107.537L189.701 103.454L188.493 100.521L188.002 96.5875L186.877 92.7044L186.227 90.0878V86.4713L185.961 84.0881L187.152 79.2633L188.452 81.4715L189.301 81.9132L190.143 80.9715V78.1217L188.268 72.4802L183.003 66.7972L176.43 63.589L169.74 62.5557L164.325 62.914L160.459 64.4056L157.576 63.4473L152.294 64.4056L146.996 67.7971L144.105 70.6887L140.514 76.5384L138.881 81.1132L137.581 87.3296L136.732 92.3877L135.607 95.9876L133.457 102.721L131.116 106.937L128.659 110.287L126.651 114.412L126.376 116.887L127.051 119.428L127.859 120.52L130.05 122.328L130.816 123.428L131.258 125.345L131.991 126.378L133.507 127.553L146.987 116.27L152.236 116.495L156.602 119.428L160.925 122.328L166.416 123.061L172.847 121.47L176.13 117.778L179.346 119.428L188.493 123.578Z" fill="white"/>
<path d="M202.123 182.426C201.623 172.876 201.848 163.31 200.115 153.602C199.624 150.852 199.257 151.344 201.39 149.669C202.94 148.46 205.206 147.727 206.964 146.844C210.679 144.977 214.412 143.094 217.794 140.661C221.577 137.927 224.709 133.478 228.941 131.353C241.463 120.628 251.361 107.02 258.859 92.396C258.859 90.1128 261.575 86.7796 262.066 84.3297C262.624 81.5465 262.274 78.68 262.149 75.8134C262.133 75.3384 262.099 74.8468 261.858 74.4468C261.658 74.1052 261.325 73.8718 261 73.6468C256.701 70.697 249.128 65.7555 245.987 72.0136C243.088 77.7883 241.03 83.7214 237.514 89.2462C230.616 100.104 221.352 109.462 210.488 116.362C207.872 118.02 205.156 119.553 202.223 120.553C196.966 122.353 191.126 122.303 185.869 120.553C184.944 120.245 174.889 116.087 175.005 115.662C174.964 115.828 174.989 115.995 175.022 116.162C175.813 120.395 177.321 124.428 178.621 128.528C180.012 132.919 181.404 137.311 182.795 141.694C186.194 152.41 189.626 163.293 190.018 174.526C190.235 180.826 189.501 187.109 188.985 193.383C188.127 203.875 187.902 214.399 187.677 224.924C187.585 229.257 187.494 233.64 188.435 237.873C188.61 238.673 188.852 239.523 190.126 239.631C190.768 239.69 191.401 239.498 191.943 239.148C197.383 235.632 202.098 231.007 205.722 225.64C207.055 223.665 208.263 221.524 208.522 219.157C208.747 217.049 208.205 214.941 207.688 212.883C206.505 208.166 205.256 203.458 204.173 198.717C202.923 193.275 202.406 187.85 202.123 182.434V182.426Z" fill="#F2BE5A"/>
<path d="M158.843 136.802C159.584 140.019 159.676 143.336 159.767 146.635C160.192 161.843 160.617 177.059 160.284 192.275C160.001 205.208 159.159 218.207 160.792 231.032C160.942 232.223 161.1 233.532 160.467 234.557C160.051 235.24 159.351 235.69 158.659 236.082C153.627 238.931 147.579 239.898 141.897 238.906C136.215 237.915 131.591 233.898 127.059 230.715C125.576 229.674 124.035 228.499 123.435 226.79C122.985 225.499 123.143 224.074 123.31 222.715C125.285 205.933 126.068 189.017 125.651 172.126C125.559 168.284 125.376 164.335 123.81 160.818C120.761 153.96 111.063 152.385 104.781 149.544C101.682 148.135 98.5664 146.727 95.6755 144.919C92.3847 142.869 89.4188 140.327 86.6362 137.636C75.1391 126.528 66.4497 112.545 61.5843 97.3125C61.0678 95.7042 60.5929 94.0293 60.8012 92.3544C61.0344 90.4795 62.0842 88.8212 63.2422 87.3296C65.475 84.4464 68.1826 81.9382 71.2318 79.9382C73.0813 78.7216 75.5723 77.6967 77.4052 78.9466C78.6466 79.7966 79.0964 81.3882 79.463 82.8464C81.2292 89.9045 83.237 96.9875 86.7861 103.337C89.2355 107.737 92.4013 111.729 96.1254 115.12C101.682 120.187 108.547 123.903 115.929 125.295C121.419 126.328 127.192 126.045 132.508 124.311C137.023 122.836 142.147 121.611 146.096 118.862C147.262 118.045 150.12 114.862 151.586 115.52C152.719 116.028 152.486 120.187 152.769 121.278C153.319 123.395 154.202 125.411 155.118 127.395C156.535 130.453 158.101 133.486 158.859 136.794L158.843 136.802Z" fill="#F2BE5A"/>
<path d="M179.504 85.488C179.645 85.1964 179.937 84.9964 180.262 84.9797C180.462 84.9714 180.662 84.9547 180.862 84.9797C181.17 85.013 181.436 85.1297 181.611 85.3964C181.761 85.6297 181.836 85.913 181.845 86.188C181.845 86.513 181.678 86.8296 181.436 87.0463C181.261 87.2046 181.036 87.3129 180.803 87.3379C180.495 87.3713 180.178 87.2629 179.937 87.0713C179.653 86.838 179.454 86.5213 179.404 86.1297C179.379 85.9297 179.404 85.7047 179.504 85.5047V85.488Z" fill="#141C2C"/>
<path d="M166.657 85.8047C166.798 85.513 167.09 85.313 167.415 85.2963C167.615 85.288 167.815 85.2713 168.015 85.2963C168.323 85.3297 168.59 85.4463 168.765 85.713C168.915 85.9463 168.99 86.2296 168.998 86.5046C168.998 86.8296 168.831 87.1463 168.59 87.3629C168.415 87.5212 168.19 87.6296 167.957 87.6546C167.648 87.6879 167.332 87.5796 167.09 87.3879C166.807 87.1546 166.607 86.8379 166.557 86.4463C166.532 86.2463 166.557 86.0213 166.657 85.8213V85.8047Z" fill="#141C2C"/>
<path d="M157.359 92.3711C157.393 92.2377 157.06 91.6128 156.651 91.0378C156.251 90.4545 155.777 89.9295 155.718 89.8712C155.56 89.7212 154.685 90.3628 154.835 90.5961C154.877 90.6628 155.26 91.2128 155.643 91.7627C156.018 92.3127 156.376 92.8794 156.435 92.896C156.576 92.946 157.326 92.521 157.359 92.3711Z" fill="#121C2D"/>
<path d="M185.252 82.6131C185.419 83.1464 185.644 84.5797 185.611 86.7963C185.611 87.8962 185.577 89.2128 185.81 90.6878C186.027 92.1961 186.752 93.671 187.193 95.2209C187.685 96.7625 187.577 98.4625 186.894 100.146C186.227 101.812 185.144 103.479 183.911 105.012C182.678 106.537 181.062 107.762 179.146 108.445C177.246 109.137 175.147 109.345 173.105 109.079C172.081 108.945 171.106 108.687 170.106 108.345C169.115 108.012 168.157 107.612 167.224 107.162C165.357 106.279 163.65 105.154 162.2 103.846C160.775 102.521 159.651 100.979 159.001 99.3374C158.851 98.8874 158.701 98.4375 158.551 97.9958C158.409 97.6708 158.168 97.3875 157.876 97.2042C157.751 97.1125 157.526 97.0292 157.451 96.9958L157.16 96.8792C156.385 96.5625 155.677 96.1709 155.068 95.6876C153.844 94.7459 153.027 93.5127 152.619 92.3044C152.411 91.7044 152.319 91.1044 152.327 90.5795C152.344 90.0461 152.461 89.5462 152.644 89.1212C153.011 88.2629 153.585 87.7212 154.077 87.4546C154.577 87.1796 154.943 87.1463 155.152 87.1463C156.21 87.1129 157.06 87.6046 157.518 88.0296C157.993 88.4629 158.176 88.8795 158.359 88.9129C158.451 88.9295 158.518 88.8545 158.559 88.6462C158.601 88.4379 158.576 88.1046 158.376 87.6712C158.184 87.2463 157.793 86.7463 157.151 86.3546C156.51 85.988 155.602 85.6713 154.51 85.888C154.21 85.9547 153.61 86.113 152.944 86.613C152.277 87.1046 151.578 87.9712 151.228 89.1712C151.053 89.7628 150.961 90.4545 151.036 91.1711C151.103 91.8877 151.303 92.596 151.611 93.3127C152.219 94.7376 153.336 96.1209 154.852 97.1125C155.235 97.3542 155.635 97.5875 156.051 97.7791C156.26 97.8875 156.476 97.9708 156.693 98.0625L157.018 98.1958C157.135 98.2458 157.135 98.2458 157.193 98.2791C157.276 98.3375 157.351 98.4125 157.393 98.5125L157.593 99.1124C157.668 99.3457 157.751 99.5791 157.826 99.8124L158.143 100.496C158.984 102.329 160.367 103.954 162 105.304C163.625 106.67 165.524 107.745 167.524 108.62C168.523 109.062 169.556 109.437 170.614 109.754C171.689 110.079 172.806 110.27 173.93 110.337C176.171 110.462 178.454 110.07 180.479 109.12C181.487 108.645 182.42 108.029 183.244 107.312C184.061 106.587 184.761 105.77 185.377 104.929C186.585 103.254 187.652 101.512 188.202 99.6124C188.476 98.6708 188.601 97.6875 188.526 96.7375C188.46 95.7792 188.193 94.9126 187.918 94.1126C187.635 93.321 187.343 92.5877 187.118 91.8877C186.894 91.1878 186.76 90.5211 186.685 89.8628C186.535 88.5462 186.569 87.3296 186.544 86.2963C186.544 84.2131 186.227 82.8298 186.102 82.5048C185.627 80.9882 184.894 80.5216 184.777 80.6215C184.594 80.7465 184.927 81.3715 185.252 82.6298V82.6131Z" fill="#121C2D"/>
<path d="M174.147 119.92C174.197 119.32 174.513 110.837 174.422 110.262C174.397 109.545 173.064 109.437 173.089 110.362C173.172 110.854 173.114 119.562 173.297 119.937C173.397 120.328 174.063 120.287 174.147 119.92Z" fill="#121C2D"/>
<path d="M155.618 113.987C155.752 113.47 156.16 109.612 156.201 105.754C156.285 101.896 156.002 98.0625 155.96 97.6042C155.86 96.4125 154.51 96.2459 154.644 97.8208C154.685 98.2625 155.018 102.121 155.027 105.954C155.068 109.795 154.768 113.587 154.777 113.887C154.802 114.545 155.468 114.595 155.618 113.987Z" fill="#121C2D"/>
<path d="M152.461 116.553C152.711 116.853 153.769 118.07 155.501 119.487C157.226 120.895 159.692 122.478 162.508 123.22C165.324 124.003 168.34 123.736 170.481 122.936C172.655 122.17 173.888 120.953 174.147 120.737C174.83 120.103 174.888 119.403 174.655 119.195C174.538 119.078 174.33 119.062 174.08 119.162C173.838 119.278 173.513 119.495 173.13 119.862C172.905 120.037 171.822 121.095 169.848 121.795C167.907 122.503 165.116 122.753 162.516 122.003C159.9 121.303 157.551 119.82 155.918 118.52C154.268 117.212 153.26 116.128 153.094 115.995C152.386 115.362 151.902 115.828 152.461 116.553Z" fill="#121C2D"/>
<path d="M154.693 125.595C154.843 125.728 155.251 126.045 155.851 126.503C156.159 126.72 156.484 127.011 156.901 127.27C157.318 127.528 157.776 127.803 158.267 128.103C160.242 129.261 162.983 130.569 165.999 130.819C168.989 131.119 172.08 130.278 173.997 128.878C175.971 127.561 176.921 126.061 177.137 125.778C177.662 124.945 177.537 124.186 177.229 124.086C177.079 124.02 176.871 124.086 176.671 124.253C176.488 124.428 176.221 124.711 175.929 125.178C175.754 125.411 174.896 126.728 173.105 127.928C171.339 129.144 168.565 129.919 165.799 129.636C165.115 129.511 164.424 129.419 163.758 129.269C163.099 129.069 162.45 128.869 161.816 128.67C160.608 128.128 159.45 127.661 158.534 127.07C158.059 126.795 157.626 126.545 157.234 126.32C156.859 126.061 156.534 125.828 156.259 125.636C155.701 125.245 155.343 124.995 155.251 124.936C154.41 124.428 154.002 124.961 154.71 125.586L154.693 125.595Z" fill="#121C2D"/>
<path d="M157.768 133.328C157.576 133.411 157.093 133.653 156.476 134.103C155.852 134.536 155.118 135.211 154.269 135.853C153.852 136.161 153.361 136.469 152.952 136.494C152.544 136.528 152.227 136.319 151.778 135.761C150.919 134.811 150.186 133.644 149.595 132.394C148.403 129.903 147.745 127.153 147.262 125.011C146.812 122.853 146.487 121.303 146.412 120.978C146.046 119.253 144.646 119.103 145.138 121.411C145.213 121.736 145.529 123.311 146.046 125.511C146.587 127.703 147.304 130.561 148.67 133.194C149.345 134.503 150.195 135.753 151.186 136.752C151.428 137.002 151.769 137.302 152.177 137.452C152.377 137.536 152.611 137.552 152.819 137.577C153.027 137.552 153.252 137.561 153.427 137.486C154.169 137.252 154.66 136.844 155.11 136.494C155.976 135.769 156.635 135.153 157.168 134.761C157.693 134.361 158.043 134.161 158.134 134.103C158.901 133.644 158.717 132.994 157.768 133.336V133.328Z" fill="#121C2D"/>
<path d="M180.62 133.786C180.978 133.894 182.478 134.203 184.544 134.611C184.802 134.661 185.069 134.711 185.344 134.769C185.485 134.794 185.618 134.828 185.76 134.853L185.977 134.894L186.085 134.919L186.252 134.936C187.168 135.053 188.093 134.186 187.985 133.186C187.976 133.061 187.951 132.944 187.918 132.828L187.843 132.594L187.693 132.128C187.585 131.819 187.476 131.503 187.368 131.186C187.143 130.553 186.91 129.919 186.66 129.294C185.668 126.77 184.494 124.336 183.461 122.495C182.436 120.653 181.578 119.395 181.403 119.128C180.436 117.745 179.137 118.195 180.378 119.995C180.553 120.245 181.403 121.486 182.436 123.303C183.477 125.111 184.669 127.528 185.677 130.003C185.927 130.619 186.168 131.244 186.402 131.861C186.51 132.169 186.627 132.478 186.735 132.778C186.785 132.919 186.86 133.111 186.876 133.203C186.901 133.286 186.91 133.361 186.893 133.436C186.868 133.586 186.768 133.736 186.635 133.811C186.568 133.844 186.493 133.869 186.427 133.878C186.36 133.886 186.285 133.878 186.118 133.844C185.543 133.744 184.994 133.653 184.485 133.569C182.453 133.228 181.028 132.986 180.82 132.969C179.895 132.886 179.803 133.553 180.636 133.794L180.62 133.786Z" fill="#121C2D"/>
<path d="M157.051 86.6963C157.309 86.438 158.967 82.2548 159.067 81.9882C159.192 81.6382 157.984 81.0882 157.809 81.5549C157.709 81.8132 156.26 86.1963 156.26 86.3963C156.26 86.6213 156.901 86.8463 157.051 86.6963Z" fill="#121C2D"/>
<path d="M191.392 122.678C191.626 122.653 192.242 122.545 192.992 122.086C193.742 121.645 194.6 120.82 195.183 119.653C195.783 118.487 196.091 117.003 196.024 115.47C195.983 113.928 195.533 112.329 194.883 110.887C193.567 107.979 191.634 105.545 190.484 103.512C189.284 101.496 188.81 99.929 188.726 99.6041C188.476 98.7541 188.093 98.2458 187.752 98.2458C187.435 98.2458 187.118 98.8458 187.502 100.146C187.602 100.504 188.185 102.271 189.501 104.371C190.767 106.495 192.725 108.929 193.95 111.662C194.558 113.028 194.916 114.462 194.941 115.837C194.975 117.212 194.675 118.478 194.142 119.437C193.617 120.395 192.925 121.036 192.35 121.37C191.776 121.711 191.359 121.795 191.267 121.828C190.826 121.953 190.584 122.111 190.567 122.311C190.551 122.495 190.826 122.72 191.392 122.67V122.678Z" fill="#121C2D"/>
<path d="M149.745 79.3216C150.186 79.5549 151.111 80.0466 152.519 80.5882C153.927 81.1132 155.843 81.7215 158.226 81.9048C159.417 81.9882 160.717 81.9715 162.083 81.7298C163.449 81.4798 164.874 81.0132 166.232 80.2549C167.582 79.4883 168.915 78.4883 169.973 77.1384C170.523 76.4801 170.972 75.7134 171.356 74.9135C171.531 74.4968 171.714 74.0885 171.831 73.6385L171.931 73.3135C171.956 73.2385 171.956 73.2385 171.956 73.2302V73.1969C171.972 73.1552 171.981 73.0969 171.997 73.0635C172.031 73.0802 172.031 73.0885 172.097 73.1219L172.189 73.1635C172.189 73.1635 172.222 73.1802 172.28 73.2052L172.422 73.2635C172.805 73.4135 173.197 73.5219 173.588 73.6218C174.38 73.8052 175.171 73.9135 175.963 74.0052C177.546 74.1718 179.062 74.3468 180.528 74.8968C183.444 75.9218 186.127 78.0717 187.36 80.9632L187.576 81.5048L187.668 81.7798C187.726 81.9382 187.776 82.1548 187.851 82.3215L187.951 82.5881C187.993 82.6715 188.126 82.6215 188.21 82.6465L188.793 82.6881C189.234 82.6548 189.518 82.5465 189.776 82.3381C190.267 81.9298 190.476 81.3965 190.584 80.9465C190.701 80.4799 190.742 80.0299 190.751 79.5883C190.776 78.705 190.692 77.855 190.567 77.0217C190.492 76.6051 190.426 76.1717 190.292 75.7551L189.901 74.5468C189.301 72.9719 188.468 71.5136 187.493 70.222C186.485 68.9387 185.335 67.8388 184.136 66.8721C181.686 64.9889 179.029 63.7139 176.488 62.964C173.955 62.189 171.514 61.9223 169.465 61.9223C165.324 61.864 162.541 62.8473 161.783 63.1806C160.225 63.8223 159.126 64.7556 158.542 65.5389C158.401 65.7389 158.276 65.9138 158.176 66.0805C158.092 66.2555 158.026 66.4055 157.976 66.5388C157.884 66.7971 157.859 66.9638 157.909 67.0388C158.026 67.1971 158.351 66.9221 159.042 66.3472C159.742 65.7805 160.858 64.9056 162.8 64.2306C163.516 63.9473 166.407 63.039 170.764 63.2806C172.914 63.3723 175.38 63.8473 177.904 64.8139C179.162 65.3139 180.445 65.9138 181.661 66.6888C182.894 67.4471 184.086 68.3554 185.135 69.4387C187.285 71.5469 188.918 74.3968 189.409 77.4467C189.518 78.2217 189.593 79.005 189.551 79.7633C189.526 80.1299 189.493 80.5132 189.384 80.8215C189.284 81.1299 189.143 81.3965 188.984 81.4548C188.968 81.4965 188.859 81.4799 188.884 81.4965C188.884 81.4965 188.868 81.4965 188.859 81.4965C188.826 81.4965 188.81 81.4882 188.81 81.4548L188.76 81.2882C188.726 81.1882 188.701 81.0882 188.651 80.9882L188.41 80.4049C188.051 79.6383 187.635 78.905 187.127 78.2467C185.094 75.5968 182.136 73.9968 179.27 73.3635C177.821 73.0385 176.438 72.9802 175.18 72.8052C174.555 72.7219 173.955 72.6136 173.397 72.4552C173.105 72.3719 172.88 72.2969 172.572 72.1636C172.355 72.0552 172.139 71.9469 171.922 71.8469C171.689 71.7219 171.456 71.5969 171.231 71.4719C171.139 71.9303 171.056 72.3802 170.964 72.8302C170.914 73.1052 170.889 73.1385 170.847 73.2802L170.739 73.6385C170.581 74.1052 170.406 74.5551 170.173 74.9718C169.731 75.8134 169.181 76.5801 168.556 77.2217C167.315 78.5216 165.874 79.4383 164.449 80.0299C163.024 80.6382 161.625 80.9132 160.334 80.9799C159.042 81.0632 157.867 80.9715 156.826 80.8132C154.743 80.4882 153.219 79.9132 152.152 79.4966C151.086 79.0633 150.478 78.755 150.261 78.655C148.678 77.8883 147.87 77.5717 147.762 77.7383C147.662 77.8883 148.287 78.53 149.761 79.3466L149.745 79.3216Z" fill="#121C2D"/>
<path d="M131.608 125.053C131.524 124.786 131.533 124.278 131.299 123.445C131.166 123.028 130.908 122.57 130.55 122.186C130.191 121.786 129.75 121.445 129.292 121.095C128.833 120.745 128.358 120.395 127.992 119.937C127.609 119.487 127.309 118.92 127.117 118.278C126.734 116.987 126.826 115.387 127.367 113.82C127.892 112.262 128.95 110.745 130.108 109.204C131.266 107.662 132.591 106.004 133.499 104.021C134.424 102.062 135.04 99.9541 135.665 97.8542C136.29 95.7459 136.89 93.596 137.381 91.4128C138.364 87.0379 138.822 82.6298 140.272 78.7883C141.663 74.9301 143.804 71.6303 146.229 69.3387C148.628 67.0055 151.286 65.7555 153.319 65.1222C155.376 64.5056 156.826 64.4472 157.326 64.4306C159.925 64.3223 161.592 64.5972 161.816 64.2723C161.916 64.1306 161.633 63.8723 160.833 63.5723C160.034 63.2973 158.676 62.989 156.759 63.1306C156.235 63.189 154.627 63.2723 152.411 64.0473C150.211 64.7972 147.362 66.2888 144.854 68.9054C142.322 71.4803 140.172 75.0801 138.839 79.1799C137.456 83.2964 137.065 87.8129 136.031 92.1044C135.523 94.2626 134.923 96.3959 134.307 98.5041C133.69 100.604 133.041 102.637 132.082 104.437C131.133 106.229 129.833 107.779 128.692 109.37C127.55 110.945 126.551 112.629 126.151 114.395C125.742 116.137 125.809 117.903 126.459 119.32C126.776 120.028 127.25 120.62 127.742 121.078C128.242 121.528 128.733 121.853 129.142 122.17C129.983 122.786 130.391 123.395 130.516 123.945C130.65 124.511 130.708 124.978 130.758 125.153C130.949 126.003 131.516 126.553 131.958 126.686C132.424 126.828 132.649 126.645 132.632 126.57C132.632 126.47 132.432 126.411 132.224 126.22C132.008 126.028 131.733 125.661 131.616 125.061L131.608 125.053Z" fill="#121C2D"/>
<path d="M178.595 93.571C178.729 93.5043 179.312 93.3043 179.97 92.5627C180.287 92.1961 180.57 91.5461 180.445 90.8794C180.337 90.2128 179.945 89.6962 179.587 89.2795C178.845 88.4796 178.171 87.8046 177.762 87.1963C177.346 86.6046 177.221 86.1463 177.187 86.0547C177.113 85.813 176.771 85.713 176.429 85.738C176.104 85.763 175.78 86.0213 175.938 86.513C175.979 86.6463 176.221 87.3046 176.763 88.0129C177.279 88.7212 178.121 89.4712 178.787 90.1461C179.104 90.4878 179.337 90.8378 179.379 91.1461C179.429 91.4544 179.312 91.7461 179.112 91.9961C178.704 92.496 178.204 92.771 178.162 92.8377C177.912 93.0794 178.246 93.671 178.595 93.571Z" fill="#121C2D"/>
<path d="M171.122 97.0792C171.181 97.1875 171.53 97.5875 172.114 98.0208C172.697 98.4458 173.522 98.8708 174.405 99.1291C175.288 99.3874 176.221 99.4624 176.937 99.4207C177.662 99.3791 178.17 99.2541 178.279 99.2291C178.862 99.0624 178.504 97.7791 177.912 97.9458C177.762 97.9958 176.179 98.3874 174.621 97.9625C173.047 97.6291 171.814 96.5459 171.722 96.4792C171.472 96.3542 170.972 96.8042 171.122 97.0792Z" fill="#121C2D"/>
<path d="M179.087 81.0632C179.245 81.1132 180.37 81.0965 181.395 81.4632C182.436 81.7965 183.286 82.4798 183.378 82.5548C183.611 82.7465 184.611 81.8382 184.177 81.4882C184.069 81.3882 182.944 80.6049 181.661 80.3216C180.387 79.9799 179.095 80.1632 179.012 80.2216C178.795 80.3216 178.904 80.9882 179.087 81.0632Z" fill="#121C2D"/>
<path d="M164.716 83.4131C164.883 83.3548 165.816 82.6215 166.874 82.0965C167.915 81.5548 169.031 81.2465 169.165 81.2049C169.498 81.1132 169.281 79.7883 168.757 79.9382C168.615 79.9799 167.349 80.4049 166.24 81.1049C165.116 81.7715 164.199 82.6798 164.158 82.7798C164.049 82.9881 164.516 83.4714 164.716 83.4131Z" fill="#121C2D"/>
<path d="M161.109 190.034C161.492 190 163.067 189.792 165.191 189.259C167.315 188.734 169.981 187.859 172.514 186.692C177.488 184.192 182.203 181.417 182.77 181.101C184.236 180.259 183.953 178.884 181.97 180.026C181.404 180.334 176.613 183.242 171.748 185.75C169.273 186.917 166.691 187.792 164.666 188.342C162.642 188.892 161.2 189.142 161 189.2C160.092 189.434 160.209 190.092 161.109 190.042V190.034Z" fill="#121C2D"/>
<path d="M183.286 186.025C183.569 186.434 188.543 188.692 188.776 188.884C189.151 189.084 189.909 187.975 189.351 187.684C189.026 187.459 183.861 185.375 183.686 185.284C183.428 185.242 183.111 185.834 183.278 186.025H183.286Z" fill="#121C2D"/>
<path d="M173.597 186.275C173.997 186.4 177.063 186.717 180.112 186.459C183.161 186.25 186.127 185.467 186.469 185.367C187.385 185.1 187.202 183.767 186.036 184.109C185.711 184.209 182.82 185.025 179.845 185.3C176.888 185.634 173.922 185.425 173.697 185.434C173.181 185.475 173.122 186.142 173.597 186.275Z" fill="#121C2D"/>
<path d="M161.142 193.642C161.983 193.675 168.107 193.367 174.197 193.292C180.287 193.175 186.335 193.467 187.052 193.525C188.91 193.642 189.51 192.342 186.952 192.183C186.244 192.125 180.004 191.9 173.839 192.125C167.673 192.308 161.6 192.742 161.125 192.8C160.075 192.942 160.15 193.608 161.125 193.65L161.142 193.642Z" fill="#121C2D"/>
<path d="M202.215 181.167C202.173 180.876 202.056 180.109 202.006 178.967C201.965 177.826 202.006 176.317 202.115 174.551C202.206 172.784 202.398 170.768 202.273 168.559C202.081 166.393 201.848 164.176 201.623 161.926C201.173 157.435 200.582 152.935 199.74 149.485C198.932 146.035 198.041 143.644 197.857 143.136C196.858 140.502 195.383 140.361 196.691 143.827C196.858 144.319 197.757 146.685 198.557 150.11C199.39 153.535 200.007 158.027 200.498 162.535C200.623 163.66 200.748 164.793 200.873 165.901C200.99 167.01 201.148 168.118 201.198 169.134C201.282 171.209 201.123 173.209 201.065 174.951C200.99 176.692 200.998 178.192 201.082 179.292C201.157 180.401 201.315 181.109 201.357 181.284C201.556 182.076 201.881 182.384 202.048 182.326C202.24 182.259 202.29 181.867 202.198 181.176L202.215 181.167Z" fill="#121C2D"/>
<path d="M133.957 159.277C133.391 159.01 129 157.893 124.809 156.418C122.71 155.685 120.669 154.818 119.144 154.06C117.611 153.302 116.612 152.635 116.403 152.493C115.853 152.135 115.27 152.219 114.987 152.535C114.712 152.852 114.762 153.443 115.587 153.977C115.812 154.127 116.936 154.835 118.586 155.602C120.227 156.368 122.385 157.21 124.568 157.902C128.933 159.293 133.324 160.235 133.665 160.301C134.44 160.393 134.632 159.56 133.957 159.268V159.277Z" fill="#121C2D"/>
<path d="M77.2548 86.2463C76.9466 86.2297 75.5803 86.3463 73.9724 87.138C72.3478 87.8963 70.5899 89.2879 68.957 90.6711C67.3074 92.0461 65.6745 93.471 64.4748 94.696C63.2751 95.9042 62.5003 96.8792 62.342 97.0875C61.5089 98.2041 62.7169 99.3958 63.7417 98.0375C63.8916 97.8542 64.5998 96.9125 65.7578 95.7209C66.8992 94.521 68.4821 93.0794 70.1067 91.6544C71.7063 90.2128 73.3308 88.9045 74.7305 88.2046C76.1218 87.4796 77.1965 87.3713 77.3382 87.3213C77.9963 87.163 78.013 86.3047 77.2465 86.2547L77.2548 86.2463Z" fill="#121C2D"/>
<path d="M261.258 85.6963C261.149 85.3963 260.574 84.1797 259.533 82.6548C258.5 81.1299 256.959 79.3299 255.201 77.7717C253.451 76.2051 251.46 74.9218 249.836 74.0718C248.211 73.2219 246.97 72.7719 246.711 72.6719C245.312 72.1969 244.529 73.7135 246.253 74.2968C246.486 74.3968 247.678 74.7968 249.236 75.5968C250.794 76.3884 252.718 77.58 254.401 79.055C256.109 80.5049 257.6 82.1882 258.6 83.5881C259.616 84.9714 260.183 86.038 260.291 86.1796C260.749 86.8046 261.508 86.4213 261.249 85.7047L261.258 85.6963Z" fill="#121C2D"/>
</g>
<path d="M37.3571 194.708C52.8781 194.892 264.307 195 277.67 195C295.041 195 299.589 193.45 276.096 193.45C262.957 193.45 46.4548 193.642 37.7237 193.725C27.9846 193.825 28.2761 194.6 37.3655 194.708H37.3571Z" fill="#121C2D"/>
</g>
<defs>
<clipPath id="clip0_2219_3783">
<rect width="323" height="195" fill="white"/>
</clipPath>
</defs>
</svg>
